<?xml version="1.0" encoding="utf-8"?>
<!-- Generator: Adobe Illustrator 24.1.0, SVG Export Plug-In . SVG Version: 6.00 Build 0)  -->
<svg version="1.1" id="Layer_1" xmlns="http://www.w3.org/2000/svg" xmlns:xlink="http://www.w3.org/1999/xlink" x="0px" y="0px"
	 viewBox="0 0 512 512" style="enable-background:new 0 0 512 512;" xml:space="preserve">
<style type="text/css">
	.st0{fill:#020202;}
</style>
<g>
	<path class="st0" d="M35,35c74,0,148.8,0.1,222.8,0.1c72.5,0,146.1,0,219.1-0.1c-0.1,61-0.1,122.5-0.1,182.2l0,39.3l0,37.4
		c0,60,0,121.8,0.1,183.1c-73,0-145.9-0.1-217-0.1c-75.3,0-150.8,0-224.9,0.1C35.1,329.1,35.1,180.8,35,35 M4.3,0C0.5,0,0,1,0,4.4
		c0.1,167.7,0.1,335.4,0,503.2c0,3.4,0.5,4.4,4.2,4.4c0,0,0,0,0,0c85.2-0.1,170.4-0.1,255.7-0.1c82.7,0,165.4,0,248.1,0.1
		c0,0,0,0,0,0c3.5,0,4-0.9,4-4.2c-0.1-83.8-0.1-167.6-0.1-251.3c0-83.9,0-167.9,0.1-251.8c0-3.6-0.6-4.7-4.5-4.7c0,0,0,0,0,0
		c-83.2,0.1-166.4,0.1-249.6,0.1C173.3,0.1,88.8,0.1,4.3,0C4.3,0,4.3,0,4.3,0L4.3,0z"/>
</g>
<path class="st0" d="M151.1,125c12.9,0,24.9,0.1,36.9-0.1c3.1-0.1,3.9,1.7,5,3.9c13.4,27,26.7,53.9,40.1,80.9
	c8,16.2,16.2,32.3,23.3,49c1.7-1.1,2-2.8,2.7-4.3c20.2-42.3,41.9-83.9,62.9-125.8c0.8-1.5,1.1-3.6,3.6-3.6c11.6,0,23.2,0,35.5,0
	c-3.7,7.1-7.1,13.5-10.5,19.9c-25.2,47.4-50.5,94.9-75.8,142.2c-1.5,2.9-2.3,5.7-2.3,9c0.1,31.6,0.1,63.3,0,94.9
	c0,7.5,0.6,6.5-6.8,6.6c-7.2,0-14.3-0.3-21.5,0.1c-4.4,0.2-5.6-1-5.6-5.5c0.2-32.6,0.1-65.3,0.2-97.9c0-3.3-0.7-6.1-2.3-9
	c-27.7-51.8-55.3-103.6-83-155.4C152.9,128.6,152.2,127.1,151.1,125z"/>
</svg>
